<svg width="53" height="53" class="watchsvg" viewBox="0 0 53 53" version="1.1" xmlns="http://www.w3.org/2000/svg" xmlns:xlink="http://www.w3.org/1999/xlink">
  <title>Play Video CTA</title>
  <desc>Created using Figma</desc>
  <g id="Canvas" transform="translate(2938 -783)">
  <g id="Play Video CTA">
  <g id="Triangle">
  <use xlink:href="#path0_fill" transform="matrix(6.12323e-17 1 -1 6.12323e-17 -2902.65 800.833)" fill="#404040"/>
  </g>
  <g id="Ellipse">
  <mask id="mask0_outline_ins">
  <use xlink:href="#path1_fill" fill="white" transform="translate(-2937.75 783.5)"/>
  </mask>
  <g mask="url(#mask0_outline_ins)">
  <use xlink:href="#path2_stroke_2x" transform="translate(-2937.75 783.5)" fill="#404040"/>
  </g>
  </g>
  </g>
  </g>
  <defs>
  <path id="path0_fill" fill-rule="evenodd" d="M 6.83807 1.87582C 7.61441 0.578391 9.49418 0.578391 10.2705 1.87582L 16.0655 11.5605C 16.8632 12.8936 15.9028 14.5874 14.3493 14.5874L 2.7593 14.5874C 1.20579 14.5874 0.245407 12.8936 1.04308 11.5605L 6.83807 1.87582Z"/>
  <path id="path1_fill" d="M 52 26C 52 40.3594 40.3594 52 26 52C 11.6406 52 0 40.3594 0 26C 0 11.6406 11.6406 0 26 0C 40.3594 0 52 11.6406 52 26Z"/>
  <path id="path2_stroke_2x" d="M 50 26C 50 39.2548 39.2548 50 26 50L 26 54C 41.464 54 54 41.464 54 26L 50 26ZM 26 50C 12.7452 50 2 39.2548 2 26L -2 26C -2 41.464 10.536 54 26 54L 26 50ZM 2 26C 2 12.7452 12.7452 2 26 2L 26 -2C 10.536 -2 -2 10.536 -2 26L 2 26ZM 26 2C 39.2548 2 50 12.7452 50 26L 54 26C 54 10.536 41.464 -2 26 -2L 26 2Z"/>
  </defs>
</svg>
