<?xml version="1.0" encoding="utf-8"?>
<!DOCTYPE svg PUBLIC "-//W3C//DTD SVG 1.1//EN" "http://www.w3.org/Graphics/SVG/1.1/DTD/svg11.dtd">
<svg xmlns="http://www.w3.org/2000/svg" xmlns:xlink="http://www.w3.org/1999/xlink" version="1.1" x="0px" y="0px" viewBox="0 0 230 144" enable-background="new 0 0 230 144" xml:space="preserve">
<polygon fill="#D0D0D0" points="11.6,68.4 56.5,86.7 42.6,62.7 20.1,53.5"/>
<g fill="#404040">
	<polygon points="0.9,86.7 42.6,62.7 56.5,86.7"/>
	<polygon points="37.3,53.5 28.7,38.6 11.6,68.4"/>
	<path d="M112.2,64.9c-2.1-1.7-4.9-2.7-7.6-2.7c-3.4,0-6.5,1.4-8.7,3.8v-3.3h-3v36.7H96V83.4 c1.9,2.4,5,3.8,8.4,3.8c2.6,0,5-0.8,7.2-2.3c3.2-2.3,5.1-6,5.1-10.3C116.7,70.9,115,67.3,112.2,64.9z M113.6,74.7 c0,3.2-1.4,6.2-3.8,7.8c-1.7,1.2-3.5,1.8-5.4,1.8c-3.4,0-6.6-1.9-8.5-5.2v-9.2c1.1-1.9,4.4-4.8,8.6-4.8c2.1,0,4.1,0.7,5.7,2 C112.4,68.9,113.6,71.7,113.6,74.7z"/>
	<path d="M131.9,83.9c-0.9,0.3-1.9,0.3-2.6,0.3c-1.7,0-3.1-0.6-3.9-1.7c-0.9-1.1-1-2.6-1-4v-13h8.1v-2.9h-8.1v-6 h-3.1v21.9c0,2.7,0.5,4.5,1.6,5.9c1.9,2.4,4.8,2.7,6.4,2.7c0.9,0,2.3-0.1,3.1-0.4l0,0L131.9,83.9L131.9,83.9z"/>
	<path d="M149.9,62.2c-3.4,0-6.5,1.4-8.3,3.6V52.1h-3.1v34.7h3.1V70.1c1.8-3.1,4.8-4.9,8.2-4.9 c2.6,0,4.8,1.2,6.2,3.2c0.7,1,1.4,2.4,1.4,5.8v12.6h3.1V74c0-4.1-0.8-6.1-2.1-7.7C156.5,63.7,153.4,62.2,149.9,62.2z"/>
	<path d="M176.6,62.2c-3.2,0-6.2,1.3-8.3,3.7c-2.1,2.3-3.2,5.5-3.2,8.8c0,3.6,1.2,6.8,3.5,9.1 c2.2,2.2,5.2,3.5,8.6,3.5c3.9,0,7.6-1.7,9.8-4.4l0,0l-2.2-2.1l0,0c-1.9,2.3-4.5,3.5-7.6,3.5c-2.6,0-4.8-1-6.5-2.8 c-1.5-1.7-2.4-4-2.5-6.5h19.5l0,0c0.1-0.5,0.1-0.8,0.1-1.1c0-3.2-1.1-6.2-3.2-8.4C182.6,63.4,179.7,62.2,176.6,62.2z M168.4,72.2 c0.5-2,1.4-3.8,2.9-5.1c1.5-1.3,3.3-2,5.4-2c4,0,7.3,2.9,8,7.1H168.4z"/>
	<path d="M203.3,62.2c-3.5,0-6.3,1.8-7.5,3.6v-3.1h-3.1v24.1h3.1V70.4c1.3-3.1,4.3-5.3,7.5-5.3 c0.3,0,1.1,0,1.4,0.1l0,0l0.4-2.9l0,0C204.7,62.3,203.7,62.2,203.3,62.2z"/>
	<path d="M226.2,65.6c-2.1-2.2-4.9-3.4-8-3.4c-3.2,0-6.2,1.3-8.3,3.7c-2.1,2.3-3.2,5.5-3.2,8.8 c0,3.6,1.2,6.8,3.5,9.1c2.2,2.2,5.2,3.5,8.6,3.5c3.9,0,7.6-1.7,9.8-4.4l0,0l-2.2-2.1l0,0c-1.9,2.3-4.5,3.5-7.6,3.5 c-2.6,0-4.8-1-6.5-2.8c-1.5-1.7-2.4-4-2.5-6.5h19.5l0,0c0.1-0.5,0.1-0.8,0.1-1.1C229.4,70.7,228.3,67.7,226.2,65.6z M210,72.2 c1-4.3,4.2-7.1,8.2-7.1c4,0,7.3,2.9,8,7.1H210z"/>
	<path d="M84,74.6c0,3.1-0.4,4.9-1.4,6.4c-1.3,2-3.8,3.2-6.4,3.2c-2.6,0-5-1.2-6.3-3.2c-0.8-1.3-1.4-2.8-1.4-6.4 v-12h-3.1v12.4c0,3,0.4,5.1,1.5,7c1.8,3.2,5.3,5.1,9.3,5.1c4,0,7.5-1.9,9.3-5.1c1-1.9,1.5-4,1.5-7V62.7h-3V74.6z"/>
</g>
</svg>
